<svg width="100px" height="100px"
  xmlns="http://www.w3.org/2000/svg" viewBox="0 0 100 100">
  <path d="M36.8 83.5c-4.3-4-5.6-12.2-3.8-18.2 3.1 3.8 7.4 4.9 11.9 5.7 6.9 1 13.6.6 20-2.6l2.3-1.3c.6 1.7.8 3.5.5 5.3-.5 4.3-2.7 7.6-6.1 10.2-1.3 1-2.9 1.9-4.3 2.9-4.4 3-5.5 6.5-3.8 11.5v.6c-2.1-.9-3.8-2.4-5-4.4-1.3-2-1.9-4.3-1.9-6.7 0-1.1 0-2.4-.2-3.5-.4-2.9-1.7-4.1-4.3-4.2-2.5-.1-4.7 1.6-5.1 4-.1 0-.2.7-.2.7zM12.3 64.3s12.7-6.2 25.5-6.2l9.6-29.8c.4-1.4 1.4-2.4 2.6-2.4 1.2 0 2.3 1 2.7 2.4l9.5 29.8c15.2 0 25.6 6.2 25.6 6.2L66 5.3c-.6-1.7-1.6-2.9-3-2.9H37c-1.4 0-2.4 1.1-3 2.9l-21.7 59z" fill="white"/>
</svg>
