<svg width="100px" height="100px" viewBox="0 0 1000 1000"
  xmlns="http://www.w3.org/2000/svg">
  <path fill="#f7df1d" d="M0 0h1000v1000H0V0z"/>
  <path d="M715.38 459.63c22.57-6.26 46.34-7.11 69.53-4.67 20.96 2.2 41.76 8.21 59.71 19.44 21.37 13.08 37.82 32.89 50.02 54.53-24.47 15.59-48.75 31.5-73.31 46.93-6.86-12.49-15.62-24.57-27.98-32.1-11.09-6.81-24.52-8.79-37.33-7.91-12.22.92-24.59 6.17-32.1 16.13-8.47 10.84-9.59 25.93-5.75 38.79 2.81 9.4 9.76 16.92 17.64 22.46 11.59 8.12 24.64 13.8 37.53 19.52 29.47 12.64 59.49 24.69 86.31 42.53 17.8 11.74 34.08 26.45 45.09 44.88 11.22 18.56 16.35 40.27 17.21 61.8 1.2 22.95-2.35 46.52-12.72 67.2-8.23 16.74-20.82 31.2-35.92 42.1-26.71 19.38-59.79 27.99-92.37 29.95-26.56 1.41-53.48-.85-79.07-8.31-22.44-6.47-43.77-17.13-61.96-31.85-18.65-15-33.91-34.1-44.71-55.44 25.52-14.79 51.03-29.59 76.58-44.32 8.91 14.55 19.59 28.35 33.38 38.6 13.01 9.87 28.81 15.79 44.99 17.62 15.64 1.76 31.89.93 46.72-4.69 10.54-4.01 20.35-10.95 26.03-20.88 6.1-10.44 6.59-23.47 3.01-34.83-3.05-9.51-10.05-17.2-18.04-22.93-11.25-8.06-23.97-13.73-36.52-19.41-25.62-11.61-52.28-21.19-76.45-35.76-15.11-8.96-29.34-19.67-40.97-32.91a116.801 116.801 0 0 1-22.63-38.35c-6.32-17.79-8.41-36.85-7.75-55.64.88-23.59 8.44-47.08 22.5-66.13 16.62-23.12 42.04-39 69.33-46.35zm-265.15-.5c31.32-.04 62.63-.02 93.95-.01.07 106.63 0 213.26.03 319.89.07 21.66-2.59 43.57-10.16 63.96-5.47 14.88-13.74 28.82-24.74 40.29-20.16 21.4-48.87 32.84-77.63 36.55-33.72 4.28-69.21 1.41-100.21-13.3-30.46-14.3-54.8-40.44-68.43-71.03 25.52-15.27 50.96-30.69 76.34-46.19 8.63 14.79 17.14 30.79 31.86 40.45 12.95 8.61 29.44 9.22 44.31 6.57 10.2-1.76 20.02-7.27 25.55-16.21 7.44-11.88 8.86-26.36 9.1-40.07.05-106.96-.01-213.93.03-320.9z"/>
</svg>
